PathFileType	4	(X/Y/Z)	C:\Users\Basilio\Documents\Thesis Gigler\squatting_fais\c3dfiles\075\SLS_back_pre2\markers_experimental.trc
DataRate	CameraRate	NumFrames	NumMarkers	Units	OrigDataRate	OrigDataStartFrame	OrigNumFrames
200.000000	200.000000	4	61	mm	200.000000	664	1329
Frame#	Time	FHD			LBHD			C7			T10			CLAV			LSHO			LUUPA			LMUPA			LDUPA			LLEP			LMEP			LRAD			LUL			LRFIN			RSHO			RUPA1			RMUPA			RDUPA			RLEP			RMEP			RRAD			RUL			RUFIN			LASI			RASI			USACR			LSACR			RSACR			LTHI1			LTHI2			LTHI3			LTHI4			LLFC			LMFC			LTIB1			LTIB2			LTIB3			LTIB4			LLMAL			LMMAL			LHEE			LMT1			LMT2			LMT5			RTHI			RTHI2			RTHI3			RTHI4			RLFC			RMFC			RTIB1			RTIB2			RTIB3			RTIB4			RLMAL			RMMAL			RHEE			RMT1			RMT2			RMT5			RBHD			
		X1	Y1	Z1	X2	Y2	Z2	X3	Y3	Z3	X4	Y4	Z4	X5	Y5	Z5	X6	Y6	Z6	X7	Y7	Z7	X8	Y8	Z8	X9	Y9	Z9	X10	Y10	Z10	X11	Y11	Z11	X12	Y12	Z12	X13	Y13	Z13	X14	Y14	Z14	X15	Y15	Z15	X16	Y16	Z16	X17	Y17	Z17	X18	Y18	Z18	X19	Y19	Z19	X20	Y20	Z20	X21	Y21	Z21	X22	Y22	Z22	X23	Y23	Z23	X24	Y24	Z24	X25	Y25	Z25	X26	Y26	Z26	X27	Y27	Z27	X28	Y28	Z28	X29	Y29	Z29	X30	Y30	Z30	X31	Y31	Z31	X32	Y32	Z32	X33	Y33	Z33	X34	Y34	Z34	X35	Y35	Z35	X36	Y36	Z36	X37	Y37	Z37	X38	Y38	Z38	X39	Y39	Z39	X40	Y40	Z40	X41	Y41	Z41	X42	Y42	Z42	X43	Y43	Z43	X44	Y44	Z44	X45	Y45	Z45	X46	Y46	Z46	X47	Y47	Z47	X48	Y48	Z48	X49	Y49	Z49	X50	Y50	Z50	X51	Y51	Z51	X52	Y52	Z52	X53	Y53	Z53	X54	Y54	Z54	X55	Y55	Z55	X56	Y56	Z56	X57	Y57	Z57	X58	Y58	Z58	X59	Y59	Z59	X60	Y60	Z60	X61	Y61	Z61	

665	3.32	-148.3007354736328	1414.967041015625	-747.6870727539064	-304.0692443847657	1319.906982421875	-828.3250732421877	-357.7860412597657	1225.339599609375	-771.505310058594	-495.3951721191407	937.0657958984377	-776.8804321289065	-239.2009887695313	1126.0205078125	-764.7081298828126	-241.5421295166016	1195.07763671875	-891.6499633789065	-96.16198730468753	1116.460815429688	-990.2120361328127	-67.72420501708986	1134.2333984375	-953.7828369140627	-27.75638389587403	1104.421142578125	-988.0202636718752	54.87495040893556	1088.111206054688	-971.9953613281252	29.33373641967774	1015.620422363281	-929.6301269531252	nan	nan	nan	276.2432861328126	1104.552368164063	-835.216491699219	268.9758300781251	1129.105712890625	-730.3468627929689	-269.8893432617188	1173.662231445313	-629.4836425781251	-150.7153930664063	1083.732788085938	-511.7352905273439	-113.1954345703125	1103.208618164063	-535.9296264648439	-83.7790985107422	1066.23779296875	-496.9955444335939	-12.90666103363037	1056.368408203125	-495.9986572265626	-9.894766807556154	986.211364746094	-530.3494262695314	198.2555084228516	1104.546875	-673.6776123046876	222.6961517333985	1094.397705078125	-599.9601440429689	272.8210144042969	1144.28173828125	-692.8126220703126	-407.9368591308595	741.7153930664064	-917.3442993164065	-396.9948730468751	730.9964599609376	-665.8452758789064	-536.0712280273439	836.662536621094	-784.2979125976565	-552.2839355468751	810.8225708007815	-813.1248168945315	-553.0405273437501	808.2234497070315	-755.4071655273439	-408.1508789062501	563.6911010742189	-1030.388671875	-352.1875000000001	502.4724121093751	-1048.324951171875	-314.0592041015626	509.8692626953126	-1017.922546386719	-362.6598510742188	444.9930114746095	-1066.334350585938	-355.8368225097657	359.1046752929688	-1081.853515625	-344.3821411132813	295.9926757812501	-961.3183593750002	-427.5728454589845	247.4969177246094	-1062.2109375	-484.4516906738282	303.1333618164063	-1101.826049804688	-476.7771301269532	259.5729980468751	-1092.011108398438	-553.9354858398439	234.9401245117188	-1063.876831054688	-707.9133911132814	280.1765136718751	-1071.82470703125	-687.5047607421876	236.6888275146485	-997.584899902344	-741.7208251953126	320.7066955566407	-1017.462524414063	-753.8010864257814	111.8059387207032	-1029.808349609375	-752.0092163085939	115.3987426757813	-1078.9326171875	-778.1071777343752	162.1160430908203	-1118.32666015625	-398.4612426757814	587.4466552734376	-607.5289306640626	-332.4277648925782	583.7606201171876	-611.8471069335939	-316.9705810546876	613.0010375976564	-621.5241088867189	-286.8056945800782	514.1664428710939	-620.4282226562501	-196.8867187500001	412.8026733398439	-665.0759277343751	-174.3554840087891	435.1213684082032	-784.616394042969	-191.7212982177735	290.3067626953126	-762.2587890625001	-267.0074462890626	229.6003417968751	-710.2834472656251	-241.2248992919922	218.4691009521485	-749.8217163085939	-275.1083374023438	196.5669708251954	-792.1818847656252	-389.8253479003907	109.3017272949219	-762.0614013671876	-355.5974426269532	141.21484375	-841.9627075195315	-448.8926696777345	97.41416168212893	-823.688171386719	-246.7151947021485	57.63891601562501	-834.264587402344	-246.0247650146485	56.51097488403322	-791.491638183594	-283.6570129394532	33.89282989501954	-740.6104736328126	-270.5369262695313	1348.6845703125	-671.9943847656251	
666	3.325	-148.0468902587891	1414.346557617188	-747.8610839843751	-303.8024902343751	1319.545776367188	-828.4729003906252	-357.5305175781251	1224.752563476563	-771.5098876953127	-495.3629760742189	936.5101318359377	-776.8704223632815	-239.0550537109376	1125.315673828125	-764.7321777343751	-241.225570678711	1194.383911132813	-891.6770019531252	-96.06945800781253	1115.692138671875	-990.318786621094	-68.21015930175783	1133.322021484375	-953.9085693359377	-27.49821853637696	1103.34814453125	-987.8873291015627	54.85475158691408	1087.454711914063	-972.290466308594	29.36685752868653	1014.909362792969	-929.7561645507815	nan	nan	nan	276.5799865722657	1103.780151367188	-835.2668457031252	269.0516052246094	1128.309936523438	-730.3975219726564	-269.6573486328126	1173.108520507813	-629.5631103515626	-150.6909332275391	1083.316284179688	-511.6219787597657	-113.1248626708985	1102.5625	-536.0480957031251	-83.66941070556642	1065.58447265625	-496.9883422851564	-12.68352890014649	1055.837768554688	-495.9830932617189	-9.753271102905275	985.6052856445315	-530.2281494140626	198.2224121093751	1103.5517578125	-673.6861572265626	222.9364318847657	1093.657104492188	-599.9196166992189	273.0484008789063	1143.547729492188	-692.8145141601564	-407.8621520996095	740.9763183593751	-917.4212036132815	-396.8753051757814	730.6784057617189	-665.7450561523439	-536.1401977539064	836.247741699219	-784.2644042968752	-552.2489624023439	810.345153808594	-813.1043090820315	-553.0149536132814	807.802917480469	-755.3444824218751	-408.082977294922	563.1354980468751	-1030.235107421875	-351.7900085449219	501.8659667968751	-1048.198486328125	-313.9731445312501	509.4010620117189	-1017.86279296875	-362.6320495605469	444.523895263672	-1066.238647460938	-355.7752685546876	358.6564331054688	-1081.72412109375	-344.1896667480469	295.5168762207032	-961.1793212890627	-427.108856201172	247.4677734375001	-1062.596313476563	-484.292205810547	302.4273681640626	-1101.547119140625	-476.9559326171876	259.0762329101563	-1091.905517578125	-553.4845581054689	234.6550750732422	-1062.277709960938	-707.3918457031251	279.1338195800782	-1071.298095703125	-687.2296752929689	235.9288177490235	-997.1481933593752	-741.5706787109376	319.7193298339844	-1017.012634277344	-753.2763061523439	110.7229995727539	-1029.340576171875	-751.4818115234376	114.4394607543946	-1078.54052734375	-777.618347167969	161.0906982421875	-1117.787963867188	-398.4412231445314	587.1652832031251	-607.4808959960939	-332.4110107421876	583.4995727539064	-611.8606567382814	-316.9600219726563	612.7443237304689	-621.5919799804689	-286.7541198730469	513.9445800781251	-620.4085693359376	-196.7295837402344	412.6457824707032	-665.1221313476564	-174.1058654785157	435.0203247070314	-784.6932373046877	-191.5526428222657	290.2697753906251	-762.2948608398439	-266.9423217773438	229.6183776855469	-710.2752685546876	-241.0833282470704	218.299789428711	-749.7843017578126	-275.1000671386719	196.4556579589844	-792.153747558594	-389.8218383789064	109.3160171508789	-762.0857543945314	-355.5642700195313	141.180908203125	-841.9849243164065	-448.9066467285157	97.41587066650393	-823.7351074218752	-247.2624664306641	57.71375656127931	-834.591247558594	-245.9772644042969	56.51629638671876	-791.5276489257815	-283.6562805175782	33.89340972900391	-740.5651245117189	-270.1055908203126	1348.188720703125	-672.2080688476564	
667	3.33	-148.0989837646485	1414.138305664063	-748.2253417968751	-303.7174682617188	1318.757568359375	-828.6278076171877	-357.2625122070313	1224.1708984375	-771.6086425781252	-495.2558898925782	936.0570068359377	-776.9019775390627	-238.9384460449219	1124.725341796875	-764.8038330078126	-241.0164489746094	1193.694580078125	-891.7500000000002	-96.53923034667972	1115.338500976563	-990.5020751953127	-67.52916717529298	1132.424560546875	-953.682067871094	-27.02988052368165	1102.868896484375	-987.9934082031252	54.92089080810548	1086.602661132813	-972.2349853515627	29.44565582275391	1014.067687988281	-929.6489257812502	nan	nan	nan	276.8043823242188	1103.032348632813	-835.4281005859377	269.2705993652344	1127.46826171875	-730.3732299804689	-269.4912719726563	1172.4951171875	-629.6433715820314	-150.525863647461	1082.68212890625	-511.7684020996095	-112.8658523559571	1102.087524414063	-535.9943847656251	-83.56009674072267	1064.965087890625	-497.0452270507814	-12.54770565032959	1055.154174804688	-495.9654846191407	-9.729250907897951	984.938903808594	-530.2036132812501	198.525619506836	1102.58447265625	-673.8246459960939	223.1479034423829	1093.030639648438	-599.9791870117189	273.2611083984376	1142.78173828125	-692.8633422851564	-407.7307434082032	740.3836059570314	-917.310729980469	-396.8506469726564	730.3878784179689	-665.7291259765626	-535.6983032226564	836.0445556640627	-784.4197387695315	-552.2585449218751	809.8850097656252	-813.044128417969	-553.0641479492189	807.3587646484377	-755.3067016601564	-408.0430603027345	562.7376708984376	-1030.16162109375	-352.0090637207032	501.4329528808595	-1048.178466796875	-314.0624389648438	509.0403747558595	-1017.801391601563	-362.4909362792969	443.9666137695314	-1066.190673828125	-355.4693603515626	358.0212707519532	-1081.434692382813	-343.9754333496094	295.0963745117188	-960.9791259765627	-426.8489685058595	247.0877838134766	-1062.542236328125	-484.0795898437501	301.8240051269532	-1101.110107421875	-476.8653869628907	258.5350341796876	-1091.6591796875	-553.2639770507814	233.6394195556641	-1062.04638671875	-706.8980712890626	278.0453491210938	-1070.822509765625	-686.9567260742189	235.1175994873047	-996.7133789062502	-741.5420532226564	318.9514160156251	-1016.627807617188	-752.7163696289064	109.6750717163086	-1028.673217773438	-751.5350952148439	113.632797241211	-1078.377563476563	-777.223571777344	160.1106109619141	-1117.363525390625	-398.368377685547	586.8880004882814	-607.3803710937501	-332.3755187988282	583.2171020507814	-611.8408203125001	-316.9418029785157	612.4634399414064	-621.6382446289064	-286.7301330566407	513.6895141601564	-620.4507446289064	-196.6204071044922	412.4984436035157	-665.1285400390626	-173.9405975341797	434.9043884277345	-784.7244873046877	-191.5032806396485	290.1999816894532	-762.3828125000001	-266.8727416992188	229.5791320800782	-710.3483276367189	-241.0203247070313	218.2906188964844	-749.8140869140626	-275.1002502441407	196.4601745605469	-792.2358398437502	-389.8043518066407	109.3334121704102	-762.1247558593751	-355.6082458496094	141.16845703125	-842.026062011719	-448.8441772460939	97.39987945556643	-823.729431152344	-246.7931365966797	57.63933181762697	-834.3121337890627	-245.9603118896485	56.51254272460939	-791.5277099609377	-283.6632995605469	33.89673233032227	-740.5703735351564	-269.8975524902344	1347.79541015625	-672.2797851562501	
668	3.335	-147.6341705322266	1413.113403320313	-748.2272338867189	-303.5555114746094	1318.106811523438	-828.8795166015627	-357.0084533691407	1223.64111328125	-771.754333496094	-495.2086181640626	935.579528808594	-776.8698730468752	-238.9124450683594	1124.161499023438	-764.9226074218751	-240.9108428955079	1193.1640625	-891.8543701171877	-96.40753173828128	1114.557495117188	-990.4766845703127	-67.52363586425783	1131.756469726563	-953.8802490234377	-26.76290512084962	1102.157104492188	-988.1582031250002	54.99113082885744	1085.565063476563	-971.9209594726565	29.59423446655274	1013.2734375	-929.4763183593752	nan	nan	nan	276.7949829101563	1102.045288085938	-835.3533325195315	269.4799194335938	1126.705932617188	-730.4328002929689	-269.2251281738282	1171.964111328125	-629.7745971679689	-150.3760375976563	1082.149658203125	-511.7613525390626	-112.6682662963867	1101.439086914063	-536.1504516601564	-83.36862182617189	1064.463623046875	-497.0745849609376	-12.42227077484131	1054.518920898438	-495.9606018066407	-9.551514625549318	984.217712402344	-530.2536621093751	198.5983428955079	1101.97607421875	-673.9298706054689	223.2193908691407	1092.20751953125	-600.0544433593751	273.4143676757813	1141.879638671875	-692.9114379882814	-407.790985107422	739.8323974609376	-917.1253051757815	-396.8830566406251	730.0442504882814	-665.6624755859376	-536.0836791992189	835.3748168945315	-784.2711181640627	-552.3303222656251	809.4492797851565	-813.0146484375002	-553.0394897460939	806.9034423828127	-755.2944946289064	-409.0685424804689	562.5419921875001	-1030.413330078125	-352.2572326660157	501.167938232422	-1048.05224609375	-314.2055664062501	508.6224670410157	-1017.703735351563	-362.4402160644532	443.4286499023439	-1065.973876953125	-355.6816101074219	357.5924072265626	-1081.378784179688	-343.7942199707032	294.5862426757813	-960.7652587890627	-426.7833557128907	245.6633758544922	-1061.181030273438	-484.3120117187501	301.4131164550782	-1101.295043945313	-476.6402587890626	257.8276977539063	-1091.328857421875	-552.8658447265626	232.8987426757813	-1061.066162109375	-706.5753173828126	277.1131896972657	-1070.262451171875	-686.6181030273439	234.3285675048829	-996.2783813476565	-741.4379882812501	318.0250244140626	-1016.247497558594	-752.3539428710939	108.8377685546875	-1028.173583984375	-751.0708007812501	112.8847122192383	-1077.793090820313	-776.893249511719	159.1074371337891	-1116.92431640625	-398.3414611816407	586.5653076171876	-607.4370727539064	-332.4100952148438	582.8975219726564	-611.8895874023439	-316.9252014160157	612.2675170898439	-621.6911010742189	-286.6160888671876	513.5385742187501	-620.4432373046876	-196.4993743896485	412.3302001953126	-665.1707763671876	-173.7211303710938	434.8035583496095	-784.7617797851565	-191.2765655517578	290.0600891113282	-762.3837280273439	-266.8694763183594	229.4934539794922	-710.3736572265626	-241.0258331298829	218.2483367919922	-749.8335571289064	-274.9598388671876	196.3631896972657	-792.244323730469	-389.8082275390626	109.3477401733399	-762.1570434570314	-355.6420593261719	141.1526794433594	-842.1093750000002	-448.8882751464845	97.42542266845706	-823.753112792969	-246.7769622802735	57.60377502441408	-834.2805786132815	-245.9995117187501	56.51541137695314	-791.5073242187502	-283.6847534179688	33.89776229858399	-740.5540161132814	-269.5376586914063	1347.239135742188	-672.5001831054689	
